<svg width="383" height="95" viewBox="0 0 383 95" fill="none" xmlns="http://www.w3.org/2000/svg">
<path d="M104.068 92.3134C103.901 92.3134 103.731 92.3031 103.561 92.2834L5.71674 80.5307C4.55238 80.3911 3.50931 79.7889 2.78066 78.8345C2.05117 77.8802 1.72522 76.6877 1.85973 75.4781L9.4574 7.30059C9.73384 4.82652 11.8926 3.01208 14.3245 3.29479L112.167 15.0466C114.571 15.3353 116.303 17.6021 116.025 20.1001L108.427 88.2785C108.171 90.5787 106.298 92.3134 104.068 92.3134ZM13.8186 5.83482C12.8465 5.83482 12.0296 6.59212 11.9173 7.597L4.31967 75.7745C4.26108 76.3013 4.40384 76.8222 4.72072 77.2377C5.03925 77.654 5.49393 77.917 6.00144 77.9778L103.844 89.7306C104.903 89.8599 105.848 89.0632 105.968 87.9829L113.566 19.8055C113.688 18.7158 112.932 17.7254 111.883 17.6004L14.0406 5.84767C13.9663 5.8391 13.8921 5.83482 13.8186 5.83482Z" fill="#111111"/>
<path d="M108.526 77.5573C107.843 77.5573 107.283 76.9816 107.283 76.2723C107.283 75.6161 107.752 75.0755 108.363 74.9976L113.499 74.0261C114.002 73.9327 114.438 73.6423 114.727 73.2071C115.02 72.7685 115.13 72.2382 115.037 71.7131L110.631 46.6391C110.617 46.5629 110.611 46.4858 110.611 46.4087C110.611 45.6985 111.166 45.1185 111.849 45.1185C112.48 45.1185 113.001 45.6043 113.077 46.2373L117.472 71.2488C117.686 72.449 117.433 73.6655 116.762 74.6712C116.093 75.6726 115.09 76.3408 113.937 76.5542L108.748 77.5359C108.674 77.5505 108.6 77.5573 108.526 77.5573Z" fill="#111111"/>
<path d="M106.432 16.9356C105.846 16.9356 105.325 16.5013 105.216 15.8811L103.166 4.20034C103.074 3.67949 102.791 3.22459 102.37 2.92305C101.949 2.6215 101.442 2.50927 100.938 2.60436L72.6394 7.68786C71.966 7.81037 71.3256 7.34005 71.2085 6.64101C71.0921 5.94196 71.5435 5.27633 72.2177 5.15553L100.503 0.074606C101.646 -0.142132 102.811 0.116582 103.778 0.808774C104.742 1.50011 105.389 2.54011 105.602 3.73774L107.652 15.4202C107.774 16.1184 107.329 16.7874 106.656 16.9151C106.581 16.9288 106.507 16.9356 106.432 16.9356Z" fill="#111111"/>
<path d="M5.94781 51.2728C5.36192 51.2728 4.84039 50.8385 4.73146 50.2191L0.0739959 23.7393C-0.138907 22.5434 0.11113 21.3312 0.778722 20.3289C1.44466 19.3292 2.44646 18.6559 3.60093 18.4357L9.21646 17.3657C9.88487 17.2389 10.5343 17.6998 10.6573 18.398C10.7802 19.0953 10.3354 19.7652 9.66289 19.8937L4.04902 20.9629C3.54481 21.0588 3.1058 21.3535 2.81533 21.7904C2.52403 22.2265 2.41593 22.7542 2.50836 23.275L7.16665 49.7574C7.28878 50.4556 6.84316 51.1255 6.17145 51.2523C6.09718 51.266 6.02208 51.2728 5.94781 51.2728Z" fill="#111111"/>
<path d="M16.2497 95C15.3659 95 14.5035 94.7216 13.7584 94.187C12.7937 93.4923 12.1492 92.4514 11.9445 91.2538L9.98963 80.1273C9.8675 79.4291 10.3131 78.7592 10.9848 78.6324C11.6566 78.5065 12.3027 78.9674 12.4248 79.6656L14.3806 90.798C14.4697 91.3215 14.7494 91.7729 15.1686 92.0745C15.5911 92.3777 16.0978 92.4925 16.6061 92.3957L42.7784 87.4339C43.4451 87.3088 44.0962 87.7688 44.2184 88.467C44.3405 89.1652 43.8949 89.8351 43.2232 89.9619L17.0534 94.9229C16.7852 94.9752 16.5162 95 16.2497 95Z" fill="#111111"/>
<path d="M23.5379 63.698C23.1286 63.698 22.7284 63.4872 22.4924 63.1026C22.126 62.5038 22.296 61.7088 22.8728 61.3293L52.6628 41.6823C53.2412 41.3028 54.0054 41.4785 54.371 42.0781C54.7373 42.6769 54.5674 43.4711 53.9905 43.8514L24.2006 63.4975C23.9951 63.6337 23.7649 63.698 23.5379 63.698Z" fill="#111111"/>
<path d="M72.4289 69.8841C72.0576 69.8841 71.6895 69.7111 71.4469 69.3812L52.3451 43.5491C51.9283 42.9863 52.0306 42.1793 52.5728 41.7467C53.1141 41.3141 53.8923 41.4203 54.3082 41.9831L73.4093 67.8161C73.826 68.3789 73.7237 69.1859 73.1815 69.6177C72.957 69.7967 72.6913 69.8841 72.4289 69.8841Z" fill="#111111"/>
<path d="M61.636 55.2889C61.2094 55.2889 60.7943 55.0593 60.5649 54.649C60.2216 54.0356 60.4221 53.2492 61.0138 52.8928L71.8067 46.3847C72.395 46.0283 73.1551 46.2365 73.4983 46.8498C73.8416 47.4632 73.6411 48.2496 73.0494 48.606L62.2566 55.1142C62.0618 55.2324 61.8473 55.2889 61.636 55.2889Z" fill="#111111"/>
<path d="M84.5677 63.698C84.2153 63.698 83.8654 63.543 83.622 63.2423L71.4832 48.325C71.0417 47.7827 71.1077 46.9723 71.6301 46.514C72.1533 46.0565 72.9347 46.1242 73.3737 46.6665L85.5125 61.5837C85.954 62.126 85.888 62.9364 85.3656 63.3939C85.1329 63.5986 84.8499 63.698 84.5677 63.698Z" fill="#111111"/>
<path d="M32.6201 38.792C27.5162 38.792 23.3646 34.482 23.3646 29.1844C23.3646 23.8867 27.5162 19.5768 32.6201 19.5768C37.7232 19.5768 41.8748 23.8867 41.8748 29.1844C41.8748 34.482 37.7224 38.792 32.6201 38.792ZM32.6201 22.1468C28.882 22.1468 25.8402 25.3045 25.8402 29.1844C25.8402 33.0642 28.882 36.2219 32.6201 36.2219C36.3575 36.2219 39.3992 33.0642 39.3992 29.1844C39.3992 25.3045 36.3575 22.1468 32.6201 22.1468Z" fill="#111111"/>
<path d="M89.7912 70.2525C89.4521 70.2525 89.1146 70.1085 88.8703 69.8267L86.1595 66.6973C85.7023 66.1696 85.7436 65.3574 86.2519 64.8828C86.7594 64.4074 87.5434 64.4519 87.9997 64.9788L90.7105 68.1082C91.1677 68.6359 91.1264 69.4481 90.6181 69.9227C90.3821 70.1437 90.085 70.2525 89.7912 70.2525Z" fill="#111111"/>
<path d="M160.612 38.3122C160.075 37.1129 159.333 36.0422 158.384 35.0999C157.394 34.2005 156.218 33.4938 154.856 32.9799C153.371 32.5088 151.803 32.2732 150.153 32.2732H138.581V37.0915H149.721C151.577 37.0915 153.124 37.5627 154.362 38.505C155.517 39.4044 156.095 40.7749 156.095 42.6166C156.095 44.287 155.538 45.6361 154.424 46.664C153.227 47.6491 151.66 48.1417 149.721 48.1417H138.581V62.854H143.717V53.0247H149.535C151.061 53.0247 152.608 52.7891 154.176 52.318C155.62 51.8469 156.858 51.183 157.889 50.3265C158.962 49.4699 159.808 48.3777 160.426 47.05C161.045 45.7651 161.355 44.2661 161.355 42.5528C161.355 40.9254 161.107 39.5119 160.612 38.3126L160.612 38.3122ZM190.922 62.8536H196.492L185.724 32.2086H180.092L186.343 50.5186L190.922 62.8536ZM168.149 62.8536H173.595L180.031 46.5353L177.37 39.2113L168.149 62.8536ZM226.493 51.6751C226.205 50.8613 225.792 50.1547 225.256 49.5551C224.885 49.1268 224.286 48.6343 223.461 48.0774C222.554 47.6063 221.749 47.2422 221.048 46.9852C221.543 46.6854 222.079 46.3428 222.657 45.9573C223.234 45.4434 223.667 44.9508 223.956 44.4797C224.328 43.9657 224.637 43.3447 224.885 42.6166C225.132 41.8457 225.256 41.0105 225.256 40.111C225.256 37.7126 224.389 35.8066 222.657 34.3933C220.924 32.98 218.572 32.2733 215.602 32.2733H204.153V37.0274H214.983C216.551 37.0274 217.83 37.37 218.82 38.0553C219.686 38.7406 220.12 39.7257 220.12 41.0106C220.12 42.4669 219.625 43.5162 218.634 44.1586C217.603 44.8439 216.262 45.1865 214.612 45.1865H204.153V49.6836H215.726C217.706 49.6836 219.212 50.0477 220.243 50.7758C221.233 51.5467 221.728 52.5746 221.728 53.8595C221.728 55.23 221.233 56.2794 220.243 57.0074C219.212 57.7355 217.83 58.0995 216.097 58.0995H204.153V62.8537H216.035C217.644 62.8537 219.129 62.6609 220.491 62.2754C221.893 61.8471 223.028 61.3118 223.894 60.6694C224.761 60.0269 225.503 59.1489 226.122 58.0354C226.617 57.0074 226.865 55.8082 226.865 54.4377C226.865 53.3669 226.741 52.4461 226.494 51.6751L226.493 51.6751ZM237.126 32.273H242.2V57.9708H257.671V62.8534H237.125V32.2726L237.126 32.273ZM277.772 57.971C277.153 57.8425 276.575 57.6497 276.039 57.3927C274.884 56.8359 273.873 56.065 273.006 55.0799C272.181 54.1805 271.521 53.0669 271.026 51.7392C270.572 50.4115 270.345 49.0624 270.345 47.6918V47.5633V47.3706C270.345 45.9571 270.572 44.5866 271.026 43.2589C271.563 41.8884 272.223 40.7962 273.007 39.9824C273.832 38.9973 274.822 38.2478 275.977 37.7338C276.678 37.3912 277.277 37.1771 277.772 37.0914V32.2731C276.328 32.4872 275.049 32.8513 273.935 33.3652C272.12 34.179 270.572 35.2711 269.293 36.6417C268.014 38.0123 267.004 39.6398 266.261 41.5242C265.518 43.4087 265.147 45.3789 265.147 47.4347V47.5632V47.7559C265.147 49.8546 265.518 51.8248 266.261 53.6665C266.921 55.5082 267.911 57.1143 269.232 58.4849C270.552 59.8983 272.099 60.9904 273.873 61.7614C274.987 62.2753 276.286 62.6394 277.772 62.8535V57.9709V57.971ZM294.604 47.5634L294.604 47.3707C294.604 45.272 294.233 43.3018 293.49 41.4601C292.748 39.5756 291.737 37.9481 290.458 36.5776C289.22 35.2071 287.694 34.1363 285.879 33.3653C284.847 32.8514 283.589 32.4873 282.104 32.2732V37.1558L282.846 37.4128C283.218 37.5412 283.506 37.6483 283.713 37.734C284.868 38.2908 285.879 39.0617 286.745 40.0468C287.57 40.9462 288.23 42.0598 288.725 43.3875C289.179 44.7152 289.406 46.0643 289.406 47.4349V47.5634V47.7562C289.406 49.1696 289.179 50.5401 288.725 51.8678C288.189 53.2383 287.529 54.3305 286.745 55.1443C285.92 56.1294 284.93 56.8789 283.774 57.3929C283.238 57.6499 282.681 57.8426 282.104 57.9711V62.8537C283.341 62.6823 284.579 62.3183 285.817 61.7614C287.508 61.0334 289.055 59.9412 290.458 58.485C291.819 56.9859 292.83 55.3585 293.49 53.6024C294.233 51.718 294.604 49.7478 294.604 47.692V47.5635L294.604 47.5634ZM348.915 38.3122C348.378 37.1129 347.636 36.0422 346.687 35.0999C345.696 34.2005 344.521 33.4938 343.159 32.9799C341.674 32.5088 340.106 32.2732 338.456 32.2732H326.884V37.0915H338.023C339.88 37.0915 341.427 37.5627 342.665 38.505C343.82 39.4044 344.398 40.7749 344.398 42.6166C344.398 44.287 343.841 45.6361 342.727 46.664C341.53 47.6491 339.963 48.1417 338.024 48.1417H326.884V62.854H332.02V53.0247H337.838C339.364 53.0247 340.911 52.7891 342.479 52.318C343.923 51.8469 345.161 51.183 346.192 50.3265C347.265 49.4699 348.11 48.3777 348.729 47.05C349.348 45.7651 349.658 44.2661 349.658 42.5528C349.658 40.9254 349.41 39.5119 348.915 38.3126L348.915 38.3122ZM363.692 44.9936V32.2089H358.494V62.918H363.692V44.9936V44.9936ZM377.864 32.2089V44.9936H368.829V50.0047H377.864V62.9178H383V32.2087H377.864V32.2089Z" fill="#111111"/>
</svg>
